# xmcd
#
# Track frame offsets:
# 150
# 3811
# 13421
# 25717
# 48188
# 59493
# 85398
# 106869
# 120138
# 126133
# 149007
# 167834
# 177489
# 200904
# 211645
# 225175
# 236071
# 249587
# 278868
# 287529
# 318605
# 330780
#
# Disc length: 4577 seconds
#
#
# Revision: 0
# Processed by: cddbd v1.5.2PL0 Copyright (c) Steve Scherf et al.
# Submitted via: FreeRIP 2.96 
#
DISCID=2d11df16
DTITLE=Bar J Wranglers - Back on the stage
DYEAR=1900
DGENRE=Country
TTITLE0=Babe's Welcome
TTITLE1=Ride, Cowboy, Ride
TTITLE2=Whoopie Ti Yi Yo
TTITLE3=Carry me back to the Lone Prairie
TTITLE4=Back in the Saddle Again
TTITLE5=Stimulus Package - Chugwater Story
TTITLE6=Old Man River
TTITLE7=Cotton Patch Rag
TTITLE8=Tim's Winning Ways
TTITLE9=The Boys at Church
TTITLE10=God Must be a Cowboy at Heart
TTITLE11=When Donnie First Came Lookin' for Work
TTITLE12=Momma Don't Allow
TTITLE13=The Family Tree
TTITLE14=I'm My Own Grandpa
TTITLE15=Rawhide
TTITLE16=Babe's Salute to Our Country's Veteran
TTITLE17=Danny Boy
TTITLE18=We're Going all the way Back to Genesis
TTITLE19=Uncle Noah's Ark
TTITLE20=In That Great Gettin' Up Morning
TTITLE21=Chime Bells
EXTD=
EXTT0=
EXTT1=
EXTT2=
EXTT3=
EXTT4=
EXTT5=
EXTT6=
EXTT7=
EXTT8=
EXTT9=
EXTT10=
EXTT11=
EXTT12=
EXTT13=
EXTT14=
EXTT15=
EXTT16=
EXTT17=
EXTT18=
EXTT19=
EXTT20=
EXTT21=
PLAYORDER=
